<svg xmlns="http://www.w3.org/2000/svg" width="81.965" height="76.845" viewBox="0 0 81.965 76.845">
  <path id="heart" d="M40.984,14.078,37.31,10.3C28.688,1.44,12.879,4.5,7.172,15.641,4.492,20.882,3.888,28.448,8.78,38.105c4.713,9.3,14.519,20.436,32.2,32.567C58.668,58.541,68.468,47.4,73.187,38.105c4.892-9.662,4.293-17.224,1.609-22.464C69.088,4.5,53.279,1.435,44.657,10.3Zm0,62.767c-78.551-51.906-24.186-92.419-.9-70.989.307.282.61.574.9.876q.434-.453.9-.871C65.164-15.584,119.534,24.934,40.984,76.845Z" transform="translate(0)" fill="#fff"/>
</svg>
