<svg xmlns="http://www.w3.org/2000/svg" width="24" height="24" viewBox="0 0 24 24">
  <g id="Group_66" data-name="Group 66" transform="translate(-995.78 -12017.78)">
    <g id="Rectangle_51" data-name="Rectangle 51" transform="translate(995.78 12017.78)" fill="#fff" stroke="#707070" stroke-width="1" opacity="0">
      <rect width="24" height="24" stroke="none"/>
      <rect x="0.5" y="0.5" width="23" height="23" fill="none"/>
    </g>
    <path id="twitter" d="M7.4,21.143A13.66,13.66,0,0,0,21.156,7.4c0-.206,0-.415-.009-.621a9.844,9.844,0,0,0,2.413-2.506,9.8,9.8,0,0,1-2.782.763A4.861,4.861,0,0,0,22.91,2.358a9.62,9.62,0,0,1-3.073,1.168A4.839,4.839,0,0,0,11.6,7.935,13.731,13.731,0,0,1,1.632,2.885a4.843,4.843,0,0,0,1.5,6.453,4.893,4.893,0,0,1-2.188-.6V8.8a4.842,4.842,0,0,0,3.876,4.739,4.717,4.717,0,0,1-1.274.169,4.756,4.756,0,0,1-.9-.084A4.834,4.834,0,0,0,7.157,16.98a9.7,9.7,0,0,1-6.008,2.072A9.306,9.306,0,0,1,0,18.986a13.759,13.759,0,0,0,7.4,2.157Z" transform="translate(996 12017.474)" fill="#009cde"/>
  </g>
</svg>
