<svg xmlns="http://www.w3.org/2000/svg" width="48" height="48" viewBox="0 0 48 48">
  <g id="Group_17" data-name="Group 17" transform="translate(-963.794 -1684.794)">
    <g id="Rectangle_11" data-name="Rectangle 11" transform="translate(963.794 1684.794)" fill="#fff" stroke="#707070" stroke-width="1" opacity="0">
      <rect width="48" height="48" stroke="none"/>
      <rect x="0.5" y="0.5" width="47" height="47" fill="none"/>
    </g>
    <g id="folder-check" transform="translate(964 1687.968)">
      <path id="Path_10" data-name="Path 10" d="M1.111,6.936,1.23,9.518A5.906,5.906,0,0,0,.215,13.409L2.105,34.184a5.936,5.936,0,0,0,5.909,5.4H26.338V36.615H8.014a2.968,2.968,0,0,1-2.953-2.7L3.171,13.139A2.968,2.968,0,0,1,6.127,9.9H40.614a2.968,2.968,0,0,1,2.956,3.235l-.789,8.637h2.983l.76-8.367a5.936,5.936,0,0,0-5.909-6.473H28.8A5.935,5.935,0,0,1,24.6,5.2L22.142,2.739A5.936,5.936,0,0,0,17.945,1H7.047A5.936,5.936,0,0,0,1.111,6.936ZM17.945,3.968a2.968,2.968,0,0,1,2.1.869l2.1,2.1H6.127A5.882,5.882,0,0,0,4.1,7.292l-.021-.416A2.968,2.968,0,0,1,7.047,3.968Z" transform="translate(-0.19 -1)" fill="#fff"/>
      <path id="Path_11" data-name="Path 11" d="M26.39,10.435a1.484,1.484,0,0,1,0,2.1l-8.9,8.9a1.484,1.484,0,0,1-2.1,0l-4.452-4.452a1.485,1.485,0,0,1,2.1-2.1l3.4,3.4,7.853-7.856a1.484,1.484,0,0,1,2.1,0Z" transform="translate(20.101 16.709)" fill="#009cde"/>
    </g>
  </g>
</svg>
