<svg xmlns="http://www.w3.org/2000/svg" width="48" height="48" viewBox="0 0 48 48">
  <g id="Group_15" data-name="Group 15" transform="translate(-932.632 -1609.632)">
    <g id="Rectangle_12" data-name="Rectangle 12" transform="translate(932.632 1609.632)" fill="#fff" stroke="#707070" stroke-width="1" opacity="0">
      <rect width="48" height="48" stroke="none"/>
      <rect x="0.5" y="0.5" width="47" height="47" fill="none"/>
    </g>
    <path id="diagram-3" d="M0,34.36a4.421,4.421,0,0,1,4.421-4.421H7.369A4.421,4.421,0,0,1,11.79,34.36v2.948a4.421,4.421,0,0,1-4.421,4.421H4.421A4.421,4.421,0,0,1,0,37.307Zm4.421-1.474A1.474,1.474,0,0,0,2.948,34.36v2.948a1.474,1.474,0,0,0,1.474,1.474H7.369a1.474,1.474,0,0,0,1.474-1.474V34.36a1.474,1.474,0,0,0-1.474-1.474ZM17.685,34.36a4.421,4.421,0,0,1,4.421-4.421h2.948a4.421,4.421,0,0,1,4.421,4.421v2.948a4.421,4.421,0,0,1-4.421,4.421H22.106a4.421,4.421,0,0,1-4.421-4.421Zm4.421-1.474a1.474,1.474,0,0,0-1.474,1.474v2.948a1.474,1.474,0,0,0,1.474,1.474h2.948a1.474,1.474,0,0,0,1.474-1.474V34.36a1.474,1.474,0,0,0-1.474-1.474ZM35.37,34.36a4.421,4.421,0,0,1,4.421-4.421h2.948A4.421,4.421,0,0,1,47.16,34.36v2.948a4.421,4.421,0,0,1-4.421,4.421H39.792a4.421,4.421,0,0,1-4.421-4.421Zm4.421-1.474a1.474,1.474,0,0,0-1.474,1.474v2.948a1.474,1.474,0,0,0,1.474,1.474h2.948a1.474,1.474,0,0,0,1.474-1.474V34.36a1.474,1.474,0,0,0-1.474-1.474Z" transform="translate(933 1609.537)" fill="#009cde" fill-rule="evenodd"/>
    <path id="diagram-3-2" data-name="diagram-3" d="M18.5,6.421A4.421,4.421,0,0,1,22.924,2h2.948a4.421,4.421,0,0,1,4.421,4.421V9.369a4.421,4.421,0,0,1-4.421,4.421v2.948H42.083a1.474,1.474,0,0,1,1.474,1.474v2.948a1.474,1.474,0,1,1-2.948,0V19.685H25.871v1.474a1.474,1.474,0,0,1-2.948,0V19.685H8.186v1.474a1.474,1.474,0,1,1-2.948,0V18.211a1.474,1.474,0,0,1,1.474-1.474H22.924V13.79A4.421,4.421,0,0,1,18.5,9.369Zm7.369,4.421a1.474,1.474,0,0,0,1.474-1.474V6.421a1.474,1.474,0,0,0-1.474-1.474H22.924A1.474,1.474,0,0,0,21.45,6.421V9.369a1.474,1.474,0,0,0,1.474,1.474Z" transform="translate(932.183 1613.895)" fill="#fff" fill-rule="evenodd"/>
  </g>
</svg>
