<svg xmlns="http://www.w3.org/2000/svg" width="24" height="24" viewBox="0 0 24 24">
  <g id="Group_68" data-name="Group 68" transform="translate(-2058 -12155)">
    <g id="Rectangle_53" data-name="Rectangle 53" transform="translate(2058 12155)" fill="#fff" stroke="#707070" stroke-width="1" opacity="0">
      <rect width="24" height="24" stroke="none"/>
      <rect x="0.5" y="0.5" width="23" height="23" fill="none"/>
    </g>
    <path id="youtube" d="M11.9,2h.132c1.215,0,7.374.049,9.034.5a2.972,2.972,0,0,1,2.092,2.1,13.389,13.389,0,0,1,.325,2.073l.015.154.033.384.012.154c.1,1.351.108,2.617.109,2.894v.111c0,.287-.015,1.638-.121,3.046l-.012.155-.013.154a14.646,14.646,0,0,1-.347,2.3,2.968,2.968,0,0,1-2.092,2.1c-1.715.461-8.234.494-9.138.5h-.21c-.457,0-2.347-.009-4.328-.077l-.251-.009-.129-.006-.253-.01-.253-.01a23.768,23.768,0,0,1-3.924-.384,2.968,2.968,0,0,1-2.092-2.1,14.619,14.619,0,0,1-.347-2.3l-.012-.155-.012-.154Q.012,11.906,0,10.4v-.182C0,9.9.015,8.8.095,7.588L.1,7.436l0-.077.012-.154.033-.384.015-.154A13.36,13.36,0,0,1,.494,4.594a2.968,2.968,0,0,1,2.092-2.1A24.271,24.271,0,0,1,6.51,2.11l.251-.01.254-.009.127,0,.253-.01Q9.507,2.008,11.619,2H11.9ZM9.463,6.745v7.124l6.146-3.56Z" transform="translate(2058 12155.958)" fill="#009cde"/>
  </g>
</svg>
