<svg xmlns="http://www.w3.org/2000/svg" width="24" height="24" viewBox="0 0 24 24">
  <g id="Group_67" data-name="Group 67" transform="translate(-1519 -12082)">
    <g id="Rectangle_52" data-name="Rectangle 52" transform="translate(1519 12082)" fill="#fff" stroke="#707070" stroke-width="1" opacity="0">
      <rect width="24" height="24" stroke="none"/>
      <rect x="0.5" y="0.5" width="23" height="23" fill="none"/>
    </g>
    <path id="github" d="M11.835,0A11.835,11.835,0,0,0,8.092,23.063c.592.1.814-.251.814-.562,0-.281-.015-1.213-.015-2.2-2.974.547-3.743-.725-3.979-1.391A4.3,4.3,0,0,0,3.7,17.234c-.414-.222-1.006-.769-.015-.784A2.368,2.368,0,0,1,5.5,17.663a2.53,2.53,0,0,0,3.447.976A2.489,2.489,0,0,1,9.7,17.057c-2.633-.3-5.385-1.317-5.385-5.843A4.606,4.606,0,0,1,5.533,8.033,4.253,4.253,0,0,1,5.651,4.9s.991-.311,3.255,1.213a11.158,11.158,0,0,1,5.917,0C17.087,4.571,18.078,4.9,18.078,4.9A4.253,4.253,0,0,1,18.2,8.033a4.579,4.579,0,0,1,1.213,3.181c0,4.542-2.766,5.548-5.4,5.843a2.8,2.8,0,0,1,.8,2.189c0,1.583-.015,2.855-.015,3.255,0,.311.222.681.814.562A11.841,11.841,0,0,0,11.835,0Z" transform="translate(1519 12082)" fill="#009cde"/>
  </g>
</svg>
