<svg xmlns="http://www.w3.org/2000/svg" width="126.138" height="51.402" viewBox="0 0 126.138 51.402">
  <g id="logo" transform="translate(-145.584 -143.034)">
    <g id="Group_75" data-name="Group 75" transform="translate(169.229 166.974)">
      <path id="Path_37" data-name="Path 37" d="M840.041,282.295a2.678,2.678,0,1,1-2.677-2.676,2.678,2.678,0,0,1,2.677,2.676" transform="translate(-737.549 -279.619)" fill="#fff"/>
      <path id="Path_38" data-name="Path 38" d="M295.509,299.668l.316,3.576h5.662l-1.906-20.809h-8.432l-10.66,20.809h5.768l1.789-3.576Zm-.249-4.055H290.09l4.448-9.015h.052Z" transform="translate(-280.488 -281.941)" fill="#fff"/>
      <path id="Path_39" data-name="Path 39" d="M413.788,294.146h.829l4.052-5.47h5.247l-5.6,6.995,3.435,7.573h-5.572l-2.237-5.913h-.834l-1.259,5.913h-4.766l4.418-20.809h4.774Z" transform="translate(-384.895 -281.942)" fill="#fff"/>
      <g id="Group_74" data-name="Group 74" transform="translate(37.735 6.569)">
        <path id="Path_40" data-name="Path 40" d="M504.5,331.829h4.77l1.934-9.1c1.06-5.025-.861-5.636-5.741-5.636-3.407,0-6.7-.029-7.669,4.5h4.775c.271-1.307,1.079-1.578,2.275-1.578,2.076,0,1.984.861,1.691,2.214l-.484,2.308h-.222c-.181-1.665-2.269-1.642-3.624-1.642-3.444,0-5.5,1.083-6.246,4.583-.786,3.712.982,4.519,4.309,4.519,1.668,0,3.9-.329,4.688-2.336h.164Zm-1.33-6.02c1.556,0,2.581.107,2.324,1.33-.328,1.525-.986,1.778-2.984,1.778-.727,0-2.078,0-1.745-1.582.284-1.338,1.234-1.526,2.4-1.526" transform="translate(-495.778 -317.095)" fill="#fff"/>
        <path id="Path_41" data-name="Path 41" d="M591.355,317.261l-.437,2.054h.2a4.833,4.833,0,0,1,4.466-2.219c2.054,0,4.083.358,3.8,2.859h.223c.7-2.077,2.826-2.859,4.658-2.859,3.362,0,4.785,1.388,4.067,4.778l-2.124,9.956h-4.767l1.794-8.436c.234-1.52.506-2.635-1.356-2.635s-2.479,1.238-2.81,2.8l-1.761,8.271h-4.77l1.875-8.822c.23-1.334.338-2.248-1.326-2.248-1.97,0-2.555,1.055-2.917,2.8l-1.766,8.271h-4.773l3.1-14.568Z" transform="translate(-568.229 -317.095)" fill="#fff"/>
        <path id="Path_42" data-name="Path 42" d="M733.915,331.829h4.77l1.935-9.1c1.066-5.025-.851-5.636-5.731-5.636-3.42,0-6.721-.029-7.673,4.5h4.774c.271-1.307,1.087-1.578,2.267-1.578,2.086,0,1.983.861,1.708,2.214l-.5,2.308h-.223c-.178-1.665-2.263-1.642-3.618-1.642-3.441,0-5.5,1.083-6.245,4.583-.787,3.712.981,4.519,4.31,4.519,1.667,0,3.9-.329,4.689-2.336h.163Zm-1.322-6.02c1.545,0,2.579.107,2.323,1.33-.321,1.525-.985,1.778-2.988,1.778-.722,0-2.08,0-1.744-1.582.286-1.338,1.239-1.526,2.409-1.526" transform="translate(-684.985 -317.095)" fill="#fff"/>
      </g>
      <path id="Path_43" data-name="Path 43" d="M818.973,332.61H814.21l3.087-14.568h4.775Z" transform="translate(-720.662 -311.307)" fill="#fff"/>
    </g>
    <g id="Group_76" data-name="Group 76" transform="translate(145.584 143.034)">
      <path id="Path_44" data-name="Path 44" d="M171.658,193.3c1.208.369,1.155,1.135-.171,1.135a25.7,25.7,0,1,1,0-51.4c1.326,0,1.615.714.515,1.035a25.649,25.649,0,0,0-.344,49.232M158.29,174.757a20.418,20.418,0,0,1,20.3-22.5c10.655,0,13.854,4.756,14.251,4.445.433-.342-3.866-9.769-16.378-9.769a20.411,20.411,0,0,0-19.03,27.782c.376.96.953.968.857.037m8.548-14.7c5.3-2.312,11.966-2.382,18.517-.093,4.4,1.534,6.948,3.725,7.157,3.635.348-.15-2.559-4.753-7.8-6.742a18.677,18.677,0,0,0-18.177,2.762c-.548.431-.341.721.308.438" transform="translate(-145.584 -143.034)" fill="#009cde"/>
    </g>
  </g>
</svg>
